<svg width="297" height="295" viewBox="0 0 297 295" fill="none" xmlns="http://www.w3.org/2000/svg">
<path d="M1.57498e-05 125.769L1.95228e-05 168.927C2.01026e-05 175.559 5.37705 180.936 12.0091 180.936L28.544 180.936C31.217 190.373 34.992 199.348 39.722 207.716L28.1001 219.26C23.3721 223.956 23.372 231.602 28.099 236.298L58.882 266.885C63.565 271.538 71.126 271.538 75.809 266.886L87.542 255.231C95.967 259.927 104.999 263.679 114.491 266.329L114.491 282.684C114.491 289.316 119.868 294.693 126.5 294.693L170.107 294.693C176.739 294.693 182.116 289.316 182.116 282.684L182.116 266.329C191.62 263.678 200.64 259.926 209.076 255.231L220.798 266.881C225.481 271.535 233.044 271.536 237.727 266.882L268.508 236.297C273.235 231.6 273.233 223.954 268.507 219.259L256.885 207.715C261.615 199.347 265.388 190.371 268.073 180.935L284.597 180.935C291.229 180.935 296.606 175.558 296.606 168.926L296.606 125.768C296.606 119.136 291.229 113.759 284.597 113.759L268.073 113.759C265.388 104.322 261.614 95.347 256.885 86.979L268.506 75.436C273.234 70.74 273.234 63.093 268.506 58.397L237.727 27.821C233.043 23.168 225.481 23.169 220.799 27.823L209.076 39.474C200.64 34.767 191.619 31.026 182.116 28.353L182.116 12.009C182.116 5.37698 176.739 1.04791e-05 170.107 1.10589e-05L126.499 1.48712e-05C119.867 1.5451e-05 114.49 5.37699 114.49 12.009L114.49 28.353C104.998 31.026 95.966 34.767 87.541 39.474L75.807 27.818C71.124 23.166 63.564 23.167 58.881 27.818L28.1 58.396C23.372 63.093 23.372 70.739 28.1 75.435L39.721 86.978C34.991 95.346 31.218 104.322 28.543 113.758L12.008 113.758C5.37701 113.76 1.51699e-05 119.136 1.57498e-05 125.769ZM148.302 92.226C178.845 92.226 203.604 116.905 203.604 147.347C203.604 177.789 178.845 202.468 148.302 202.468C117.759 202.468 93.012 177.789 93.012 147.347C93.012 116.905 117.759 92.226 148.302 92.226Z" fill="white"/>
<path d="M148.302 233.337C195.796 233.337 234.293 194.841 234.293 147.347C234.293 99.864 195.797 61.367 148.302 61.367C100.819 61.367 62.322 99.8631 62.322 147.347C62.323 194.841 100.819 233.337 148.302 233.337ZM148.302 92.2261C178.845 92.226 203.604 116.905 203.604 147.347C203.604 177.789 178.845 202.468 148.302 202.468C117.759 202.468 93.012 177.789 93.012 147.347C93.012 116.905 117.759 92.2261 148.302 92.2261Z" fill="white"/>
</svg>
