<svg width="540" height="540" viewBox="0 0 540 540" fill="none" xmlns="http://www.w3.org/2000/svg">
<path d="M334.79 97.6483L322.481 115.528C310.287 111.392 297.78 108.792 285.205 107.675L281.378 86.5239C279.828 77.9167 271.559 72.2241 262.963 73.8342L206.99 84.3539C198.467 85.9497 192.842 94.1215 194.384 102.647L198.259 124.01C186.909 129.618 176.133 136.599 166.199 144.88L148.518 132.709C141.351 127.774 131.533 129.586 126.599 136.754L94.1442 183.897C89.2097 191.065 91.0214 200.882 98.1891 205.817L115.868 217.987C111.666 230.241 109.003 242.781 107.805 255.401L86.486 259.397C77.9718 260.999 72.3461 269.171 73.8886 277.696L84.0397 333.737C85.6048 342.343 93.8721 348.034 102.461 346.419L123.585 342.444C129.122 353.784 136.009 364.547 144.219 374.472L131.922 392.334C126.988 399.502 128.791 409.313 135.967 414.253L182.622 446.372C189.79 451.306 199.607 449.495 204.542 442.327L216.838 424.464C229.031 428.586 241.552 431.183 254.113 432.303L257.94 453.454C259.505 462.06 267.772 467.751 276.361 466.135L332.334 455.616C340.848 454.014 346.474 445.842 344.923 437.311L341.055 415.976C352.417 410.351 363.181 403.387 373.144 395.102L390.815 407.266C394.656 409.911 399.252 410.618 403.446 409.592C407.105 408.726 410.444 406.548 412.734 403.221L445.189 356.078C450.123 348.91 448.312 339.093 441.144 334.158L423.473 321.994C427.645 309.746 430.32 297.187 431.508 284.584L452.735 280.59L452.838 280.571C461.352 278.97 466.978 270.798 465.435 262.272L460.288 233.842L455.279 206.24C453.727 197.631 445.46 191.94 436.858 193.558L415.733 197.533C410.21 186.19 403.309 175.43 395.101 165.52L407.41 147.64C411.377 141.879 410.988 134.405 406.951 129.129C405.968 127.847 404.77 126.688 403.365 125.721L356.71 93.6026C349.533 88.6627 339.724 90.4806 334.79 97.6483ZM329.251 311.006C327.695 313.267 326.034 315.419 324.267 317.444C300.388 345.027 259.154 350.868 228.509 329.772C195.595 307.113 187.343 261.98 210.074 228.961C232.805 195.942 277.9 187.56 310.813 210.218C320.949 217.196 328.751 226.311 334.025 236.556C345.871 259.537 344.974 288.168 329.251 311.006Z" fill="white"/>
<path d="M382.527 269.988C382.527 207.654 332.001 157.128 269.667 157.128C209.209 157.128 159.86 204.675 156.966 264.422C156.871 266.266 156.828 268.121 156.828 269.986C156.828 330.687 204.758 380.206 264.833 382.729C266.434 382.803 268.044 382.835 269.667 382.835C332.001 382.837 382.527 332.31 382.527 269.988ZM235.146 333.752C212.613 321.478 197.329 297.524 197.329 269.987C197.329 267.242 197.477 264.528 197.784 261.868L197.784 261.858C201.812 225.598 232.464 197.405 269.668 197.405C309.627 197.405 342.017 229.901 342.017 269.988C342.017 310.075 309.626 342.55 269.668 342.55C257.362 342.55 245.767 339.466 235.613 334.018C235.454 333.933 235.294 333.837 235.146 333.752Z" fill="white"/>
</svg>
