<svg width="512" height="512" viewBox="0 0 512 512" fill="none" xmlns="http://www.w3.org/2000/svg">
<path d="M482.16 288.51L512 283.83V228.17L482.16 223.49C457.6 219.35 448.97 186.82 468.17 171.04L490.69 152.49L462.98 104.51L435.42 114.83C412.09 123.57 388.42 99.93 397.17 76.58L407.49 49.02L359.51 21.31L340.96 43.83C325.21 62.99 292.66 54.44 288.51 29.84L283.83 0L228.17 0L223.49 29.84C219.32 54.4 186.82 63.03 171.04 43.83L152.49 21.31L104.51 49.02L114.83 76.58C123.57 99.91 99.93 123.58 76.58 114.83L49.02 104.51L21.31 152.49L43.83 171.04C62.95 186.78 54.5 219.33 29.84 223.49L0 228.17L0 283.83L29.84 288.51C54.3 292.66 63.1 325.1 43.83 340.96L21.31 359.51L49.02 407.49L76.58 397.17C99.8 388.47 123.62 411.98 114.83 435.42L104.51 462.98L152.49 490.69L171.04 468.17C186.77 449.06 219.31 457.5 223.49 482.16L228.17 512H283.83L288.51 482.16C292.63 457.76 325.07 448.86 340.96 468.17L359.51 490.69L407.49 462.98L397.17 435.42C388.47 412.2 411.98 388.38 435.42 397.17L462.98 407.49L490.69 359.51L468.17 340.96C449.01 325.2 457.56 292.68 482.16 288.51V288.51ZM256 381C187.07 381 131 324.93 131 256C131 187.07 187.07 131 256 131C324.93 131 381 187.07 381 256C381 324.93 324.93 381 256 381Z" fill="white"/>
<path d="M256 121C181.56 121 121 181.56 121 256C121 330.44 181.56 391 256 391C330.44 391 391 330.44 391 256C391 181.56 330.44 121 256 121ZM256 331C214.65 331 181 297.36 181 256C181 214.64 214.65 181 256 181C297.35 181 331 214.64 331 256C331 297.36 297.35 331 256 331Z" fill="white"/>
</svg>
