<svg width="1024" height="654" viewBox="0 0 1024 654" fill="none" xmlns="http://www.w3.org/2000/svg">
<path fill-rule="evenodd" clip-rule="evenodd" d="M512 654C726.137 654 909.571 563.766 986 445.85V206.446C909.571 89.0869 726.137 0 512 0C297.863 0 114.429 89.0869 38 206.446V445.85C114.429 563.766 297.863 654 512 654ZM1024 326C1024 361.385 1014.14 396.198 996 429.155V223.067C1014.14 255.888 1024 290.615 1024 326ZM28 429.155V223.067C9.85541 255.888 0 290.615 0 326C0 361.385 9.85541 396.198 28 429.155ZM314 98C247.726 98 194 151.726 194 218V425.163C194 485.513 238.828 536.803 298.864 542.955C453.599 558.809 570.713 559.158 725.508 543.139C785.388 536.942 830 485.713 830 425.513V218C830 151.726 776.274 98 710 98H512H314Z" fill="#F0F0F0"/>
</svg>
